<svg xmlns="http://www.w3.org/2000/svg" width="16" height="16" viewBox="0 0 16 16"><g><g><path fill="#18142a" d="M16.023 2.458v10.78c0 1.44-1.129 2.626-2.56 2.74a.632.632 0 0 1-.195.03h-.003l-9.739-.032a2.75 2.75 0 0 1-2.746-2.74l-.052-2.76a.634.634 0 0 1 .634-.647h1.71l.077-7.388A1.696 1.696 0 0 1 4.841.766h9.49c.933 0 1.692.759 1.692 1.692zM10.9 14.732a2.705 2.705 0 0 1-.449-1.493v-2.14H2.008l.04 2.117.001.013a1.48 1.48 0 0 0 1.479 1.479zm3.853-12.274a.423.423 0 0 0-.423-.423h-9.49a.424.424 0 0 0-.423.419l-.077 7.375h6.746c.35 0 .634.284.634.635v2.775c0 .815.68 1.479 1.517 1.479.836 0 1.516-.664 1.516-1.48zm-1.297 2.17c0 .35-.284.635-.635.635H6.224a.634.634 0 1 1 0-1.269h6.598c.35 0 .635.284.635.634zm-.053 2.714c0 .35-.284.634-.634.634H6.224a.634.634 0 1 1 0-1.269h6.546c.35 0 .634.284.634.635z"/></g></g></svg>