<svg width="11" height="11" viewBox="0 0 11 11" fill="none" xmlns="http://www.w3.org/2000/svg">
<path fill-rule="evenodd" clip-rule="evenodd" d="M2.40272 4.30544H5.86481C6.3226 4.30544 6.69456 4.6774 6.69456 5.12089V8.59728C6.69456 9.04077 6.3226 9.41273 5.86481 9.41273H2.40272C1.95923 9.41273 1.58727 9.04077 1.58727 8.59728V5.12089C1.58727 4.6774 1.95923 4.30544 2.40272 4.30544ZM5.12089 1.58727H8.59728C9.04077 1.58727 9.41273 1.95923 9.41273 2.40272V5.86481C9.41273 6.3226 9.04077 6.69456 8.59728 6.69456H7.78183V5.12089C7.78183 4.60587 7.56724 4.13376 7.22389 3.79042V3.77611H7.20959C6.86624 3.43276 6.39413 3.21817 5.86481 3.21817H4.30544V2.40272C4.30544 1.95923 4.6774 1.58727 5.12089 1.58727ZM7.78183 7.78183H8.59728C9.1123 7.78183 9.58441 7.56724 9.92775 7.22389L9.94206 7.20959C10.2854 6.86624 10.5 6.39413 10.5 5.86481V2.40272C10.5 1.8877 10.2854 1.41559 9.94206 1.05794H9.92775C9.58441 0.714592 9.1123 0.5 8.59728 0.5H5.12089C4.60587 0.5 4.13376 0.714592 3.79042 1.05794H3.77611C3.43276 1.40129 3.21817 1.8877 3.21817 2.40272V3.21817H2.40272C1.8877 3.21817 1.41559 3.43276 1.05794 3.77611C0.714592 4.13376 0.5 4.60587 0.5 5.12089V8.59728C0.5 9.1123 0.714592 9.58441 1.05794 9.92775V9.94206C1.40129 10.2854 1.8877 10.5 2.40272 10.5H5.86481C6.39413 10.5 6.86624 10.2854 7.20959 9.94206L7.22389 9.92775C7.56724 9.58441 7.78183 9.1123 7.78183 8.59728V7.78183Z" fill="#2995D8"/>
</svg>
