<?xml version="1.0" encoding="utf-8"?>
<!-- Generator: Adobe Illustrator 21.0.0, SVG Export Plug-In . SVG Version: 6.00 Build 0)  -->
<svg version="1.1"
	 id="Слой_1" xmlns:cc="http://creativecommons.org/ns#" xmlns:dc="http://purl.org/dc/elements/1.1/" xmlns:inkscape="http://www.inkscape.org/namespaces/inkscape" xmlns:rdf="http://www.w3.org/1999/02/22-rdf-syntax-ns#" xmlns:sodipodi="http://sodipodi.sourceforge.net/DTD/sodipodi-0.dtd" xmlns:svg="http://www.w3.org/2000/svg"
	 xmlns="http://www.w3.org/2000/svg" xmlns:xlink="http://www.w3.org/1999/xlink" x="0px" y="0px" viewBox="0 0 14.2 11.4"
	 style="enable-background:new 0 0 14.2 11.4;" xml:space="preserve">
<style type="text/css">
	.st0{fill-rule:evenodd;clip-rule:evenodd;fill:#31354F;}
</style>
<path class="st0" d="M13.1,6.8H2.5l3,3c0.2,0.2,0.2,0.6,0,0.8c-0.2,0.2-0.6,0.2-0.8,0L0.8,6.7c0,0,0,0,0,0C0.7,6.6,0.6,6.5,0.6,6.3
	c0,0,0,0,0,0l0,0c0-0.1,0-0.3,0.2-0.4L4.7,2c0.2-0.2,0.6-0.2,0.8,0c0.2,0.2,0.2,0.6,0,0.8l-3,3.1h10.2V1.3c0-0.3,0.2-0.5,0.5-0.5
	s0.5,0.2,0.5,0.5v5C13.6,6.6,13.4,6.8,13.1,6.8z"/>
</svg>
