<svg width="12" height="12" viewBox="0 0 12 12" fill="none" xmlns="http://www.w3.org/2000/svg">
<path d="M6.08319 11.5832C3.00674 11.5832 0.5 9.07645 0.5 6C0.5 2.92355 3.00674 0.416809 6.08319 0.416809C7.36505 0.416809 8.56144 0.829851 9.5442 1.62745L10.1139 1.05774C10.2136 0.958037 10.3133 0.943794 10.3703 0.943794C10.5127 0.943794 10.6267 1.04349 10.6694 1.21441L11.3958 3.9063C11.4243 4.02025 11.41 4.13419 11.353 4.21965C11.2961 4.29086 11.2106 4.33359 11.1109 4.33359C11.0682 4.33359 11.0397 4.33359 10.997 4.31934L8.30507 3.59296C8.17689 3.55023 8.07719 3.47902 8.0487 3.36508C8.02022 3.25113 8.06294 3.13719 8.16264 3.03749L8.66114 2.53899C7.89203 1.98352 7.00897 1.68442 6.08319 1.68442C3.70464 1.68442 1.76761 3.62145 1.76761 6C1.76761 8.37855 3.70464 10.3013 6.06895 10.3013C8.43326 10.3013 10.3703 8.36431 10.3703 6C10.3703 5.64393 10.6551 5.35907 11.0112 5.35907C11.3673 5.35907 11.6521 5.64393 11.6521 6C11.6664 9.07645 9.15964 11.5832 6.08319 11.5832Z" fill="#2995D8"/>
<path d="M5.52772 7.50974C5.17165 7.50974 4.88679 7.22488 4.88679 6.86881V3.29386C4.88679 2.93779 5.17165 2.65293 5.52772 2.65293C5.88379 2.65293 6.16865 2.93779 6.16865 3.29386V6.24213H8.31931C8.67539 6.24213 8.96024 6.52698 8.96024 6.88306C8.96024 7.23913 8.67539 7.52398 8.31931 7.52398H5.52772V7.50974Z" fill="#2995D8"/>
</svg>
