<svg width="13" height="12" viewBox="0 0 13 12" fill="none" xmlns="http://www.w3.org/2000/svg">
<path d="M10.3894 2.08039H10.3141V1.44722C10.3141 1.11556 10.0427 0.844208 9.71105 0.844208C9.3794 0.844208 9.10804 1.11556 9.10804 1.44722V2.08039H3.89196V1.44722C3.89196 1.11556 3.6206 0.844208 3.28894 0.844208C2.95729 0.844208 2.68593 1.11556 2.68593 1.44722V2.08039H2.61055C1.44975 2.08039 0.5 3.03014 0.5 4.19094V9.04521C0.5 10.206 1.44975 11.1558 2.61055 11.1558H10.3894C11.5503 11.1558 12.5 10.206 12.5 9.04521V4.19094C12.5 3.03014 11.5503 2.08039 10.3894 2.08039ZM11.294 9.06029C11.294 9.55778 10.8869 9.96481 10.3894 9.96481H2.61055C2.11307 9.96481 1.70603 9.55778 1.70603 9.06029V4.19094C1.70603 3.69345 2.11307 3.28642 2.61055 3.28642H10.3894C10.8869 3.28642 11.294 3.69345 11.294 4.19094V9.06029Z" fill="#2995D8"/>
<path d="M3.34925 6.15074H5.83668C6.16834 6.15074 6.4397 5.87938 6.4397 5.54773C6.4397 5.21607 6.16834 4.94471 5.83668 4.94471H3.34925C3.01759 4.94471 2.74623 5.21607 2.74623 5.54773C2.74623 5.87938 3.01759 6.15074 3.34925 6.15074Z" fill="#2995D8"/>
<path d="M9.65075 7.22109H3.34925C3.01759 7.22109 2.74623 7.49245 2.74623 7.82411C2.74623 8.15577 3.01759 8.42712 3.34925 8.42712H9.65075C9.98241 8.42712 10.2538 8.15577 10.2538 7.82411C10.2538 7.49245 9.98241 7.22109 9.65075 7.22109Z" fill="#2995D8"/>
</svg>
