<svg 
 xmlns="http://www.w3.org/2000/svg"
 xmlns:xlink="http://www.w3.org/1999/xlink"
 width="15px" height="15px">
<path fill-rule="evenodd"  fill="rgb(104, 108, 134)"
 d="M14.716,13.122 L11.179,9.575 C13.082,6.782 12.362,2.974 9.571,1.069 C6.780,-0.835 2.974,-0.114 1.072,2.679 C-0.831,5.473 -0.111,9.281 2.680,11.185 C4.759,12.603 7.492,12.603 9.571,11.185 L13.113,14.726 C13.590,15.135 14.308,15.079 14.716,14.602 C15.080,14.176 15.080,13.548 14.716,13.122 ZM2.272,6.122 C2.272,3.995 3.995,2.271 6.120,2.271 C8.246,2.271 9.969,3.995 9.969,6.122 C9.969,8.249 8.246,9.973 6.120,9.973 C3.996,9.970 2.275,8.248 2.272,6.122 Z"/>
</svg>