<svg width="8" height="9" viewBox="0 0 8 9" fill="none" xmlns="http://www.w3.org/2000/svg">
<path d="M4 0.620117C1.8 0.620117 0 2.42012 0 4.62012C0 6.82012 1.8 8.62012 4 8.62012C6.2 8.62012 8 6.82012 8 4.62012C8 2.42012 6.2 0.620117 4 0.620117ZM1 4.62012C1 3.97012 1.2 3.37012 1.55 2.89512L5.725 7.07012C5.25 7.42012 4.65 7.62012 4 7.62012C2.35 7.62012 1 6.27012 1 4.62012ZM6.45 6.34512L2.275 2.17012C2.75 1.82012 3.35 1.62012 4 1.62012C5.65 1.62012 7 2.97012 7 4.62012C7 5.27012 6.8 5.87012 6.45 6.34512Z" fill="#828B95"/>
</svg>
