<svg width="15" height="16" viewBox="0 0 15 16" fill="none" xmlns="http://www.w3.org/2000/svg">
<path fill-rule="evenodd" clip-rule="evenodd" d="M6.2632 2.88542C6.57318 2.20486 7.5244 2.20486 7.83437 2.88542L8.90209 5.22968L11.3491 5.56761C12.0991 5.67119 12.3273 6.58367 11.8379 7.07047L10.0322 8.86621L10.4867 11.4373C10.6051 12.1074 9.90408 12.7558 9.21198 12.3622L7.04879 11.1322L4.88559 12.3622C4.19349 12.7558 3.49245 12.1074 3.61089 11.4373L4.06532 8.86621L2.2597 7.07047C1.77022 6.58367 1.99849 5.67119 2.74848 5.56761L5.19548 5.22968L6.2632 2.88542ZM7.04879 3.81445L6.1449 5.79898C6.02435 6.06367 5.77698 6.25981 5.47584 6.3014L3.34255 6.59601L4.92046 8.16529C5.1291 8.37278 5.2173 8.66859 5.16734 8.95123L4.77723 11.1585L6.62626 10.1071C6.8888 9.95779 7.20877 9.95779 7.47131 10.1071L9.32034 11.1585L8.93023 8.95123C8.88027 8.66859 8.96847 8.37279 9.17711 8.16529L10.755 6.59601L8.62173 6.3014C8.32059 6.25981 8.07322 6.06367 7.95267 5.79898L7.04879 3.81445Z" fill="#2995D8"/>
</svg>
