<svg xmlns="http://www.w3.org/2000/svg" width="12" height="9" viewBox="0 0 12 9"><g><g><path fill="#fff" d="M10 0a1 1 0 0 1 1 1v2a1 1 0 0 0 1 1v1a1 1 0 0 0-1 1v2a1 1 0 0 1-2 0 1 1 0 0 0 1-1V5h.5a.5.5 0 0 0 0-1H10V2a1 1 0 0 0-1-1 1 1 0 0 1 1-1zM2 0a1 1 0 0 1 1 1 1 1 0 0 0-1 1v2h-.5a.5.5 0 0 0 0 1H2v2a1 1 0 0 0 1 1 1 1 0 0 1-2 0V6a1 1 0 0 0-1-1V4a1 1 0 0 0 1-1V1a1 1 0 0 1 1-1zm4 1a1 1 0 1 1 0 2 1 1 0 0 1 0-2zm0 3a1 1 0 0 1 .956 1.294A.498.498 0 0 1 7 5.5v1a.5.5 0 0 1-.41.492l-.59.59a.5.5 0 0 1-.707-.707L6 6.168V6a1 1 0 0 1 0-2z"/></g></g></svg>
