<?xml version="1.0" encoding="utf-8"?>
<!-- Generator: Adobe Illustrator 21.0.0, SVG Export Plug-In . SVG Version: 6.00 Build 0)  -->
<svg version="1.1" id="Слой_1" xmlns="http://www.w3.org/2000/svg" xmlns:xlink="http://www.w3.org/1999/xlink" x="0px" y="0px"
	 viewBox="0 0 9 9" style="enable-background:new 0 0 9 9;" xml:space="preserve">
<style type="text/css">
	.st0{fill:#588FE2;}
</style>
<path class="st0" d="M8.6,3c0-0.1-0.1-0.2-0.3-0.2L5.9,2.4L4.8,0.2C4.7,0,4.5,0,4.4,0c-0.1,0-0.1,0.1-0.2,0.2L3.1,2.4L0.7,2.8
	C0.6,2.8,0.4,3,0.5,3.2c0,0.1,0,0.2,0.1,0.2l1.7,1.7L1.9,7.6C1.8,7.8,2,8,2.2,8c0.1,0,0.1,0,0.2,0l2.1-1.2L6.7,8
	C6.8,8.1,7,8,7.1,7.8c0-0.1,0-0.1,0-0.2L6.7,5.1l1.7-1.7C8.6,3.3,8.6,3.2,8.6,3z"/>
</svg>
