<?xml version="1.0" encoding="utf-8"?>
<!-- Generator: Adobe Illustrator 21.0.0, SVG Export Plug-In . SVG Version: 6.00 Build 0)  -->
<svg version="1.1" id="Слой_1" xmlns="http://www.w3.org/2000/svg" xmlns:xlink="http://www.w3.org/1999/xlink" x="0px" y="0px"
	 viewBox="0 0 9 9" style="enable-background:new 0 0 9 9;" xml:space="preserve">
<style type="text/css">
	.st0{fill-rule:evenodd;clip-rule:evenodd;fill:#18142A;}
</style>
<path class="st0" d="M4.5,0C2,0,0,2,0,4.5S2,9,4.5,9S9,7,9,4.5S7,0,4.5,0z M5,6.5C5,6.8,4.8,7,4.5,7C4.2,7,4,6.8,4,6.5v-2
	C4,4.2,4.2,4,4.5,4C4.8,4,5,4.2,5,4.5V6.5z M4.5,3C4.2,3,4,2.8,4,2.5S4.2,2,4.5,2C4.8,2,5,2.2,5,2.5S4.8,3,4.5,3z"/>
</svg>
