<svg
	width="42px"
	height="41px"
>
	<path
		fillRule="evenodd"
		fill="rgb(94, 179, 232)"
		d="M42.003,20.499 C42.003,20.500 42.003,20.500 42.003,20.500 C42.003,31.821 32.601,40.999 21.002,40.999 C9.403,40.999 -0.000,31.821 -0.000,20.500 C-0.000,9.178 9.403,0.000 21.002,0.000 C31.968,0.000 40.960,8.208 41.909,18.671 C41.971,19.272 42.003,19.882 42.003,20.499 C42.003,20.499 42.003,20.499 42.003,20.499 ZM20.188,15.761 C20.468,15.708 20.755,15.676 21.051,15.676 C23.780,15.676 25.993,17.836 25.993,20.500 C25.993,23.164 23.780,25.323 21.051,25.323 C20.755,25.323 20.468,25.291 20.188,25.238 C19.919,25.192 19.662,25.117 19.410,25.029 C19.410,25.029 19.410,25.029 19.410,25.029 C20.571,26.083 22.083,26.701 23.720,26.701 C25.438,26.701 27.030,26.036 28.211,24.884 C29.392,23.731 30.072,22.176 30.072,20.500 C30.072,18.823 29.392,17.268 28.211,16.115 C27.030,14.963 25.438,14.299 23.720,14.299 C22.083,14.299 20.571,14.916 19.409,15.970 C19.662,15.883 19.919,15.808 20.188,15.761 ZM17.367,20.500 C17.367,22.483 19.019,24.096 21.051,24.096 C23.083,24.096 24.736,22.483 24.736,20.500 C24.736,18.517 23.083,16.903 21.051,16.903 C19.019,16.903 17.367,18.517 17.367,20.500 ZM23.720,13.071 C27.922,13.071 31.330,16.397 31.330,20.500 C31.330,24.602 27.922,27.928 23.720,27.928 C22.618,27.928 21.578,27.689 20.632,27.278 C22.241,28.583 24.253,29.305 26.388,29.305 C28.808,29.305 31.072,28.380 32.767,26.726 C34.461,25.072 35.409,22.862 35.409,20.500 C35.409,18.137 34.461,15.928 32.767,14.273 C31.072,12.619 28.808,11.694 26.388,11.694 C24.253,11.694 22.241,12.416 20.633,13.721 C21.578,13.310 22.618,13.071 23.720,13.071 ZM16.110,20.500 C16.110,13.520 21.906,7.862 29.056,7.862 C31.179,7.862 33.177,8.370 34.944,9.254 C34.019,8.580 33.028,8.006 31.967,7.569 C30.208,6.843 28.320,6.468 26.372,6.468 C24.423,6.468 22.535,6.843 20.776,7.569 C19.078,8.269 17.535,9.283 16.207,10.578 C14.880,11.874 13.842,13.381 13.124,15.038 C12.381,16.754 11.997,18.598 11.997,20.500 C11.997,22.401 12.381,24.245 13.124,25.961 C13.842,27.618 14.880,29.125 16.207,30.421 C17.535,31.717 19.078,32.730 20.776,33.430 C22.535,34.156 24.423,34.531 26.372,34.531 C28.320,34.531 30.208,34.156 31.967,33.430 C33.028,32.993 34.019,32.419 34.945,31.745 C33.177,32.629 31.179,33.137 29.056,33.137 C21.906,33.137 16.110,27.479 16.110,20.500 ZM29.056,9.089 C28.697,9.089 28.340,9.109 27.986,9.140 C27.854,9.152 27.724,9.172 27.593,9.188 C27.377,9.214 27.163,9.243 26.950,9.281 C26.784,9.310 26.620,9.346 26.456,9.382 C26.290,9.419 26.124,9.459 25.960,9.503 C25.771,9.554 25.583,9.607 25.397,9.667 C25.277,9.706 25.160,9.749 25.041,9.791 C24.823,9.870 24.605,9.948 24.393,10.039 C24.368,10.049 24.344,10.062 24.320,10.072 C23.470,10.443 22.663,10.912 21.917,11.476 C23.270,10.836 24.783,10.467 26.388,10.467 C32.065,10.467 36.666,14.959 36.666,20.500 C36.666,26.041 32.065,30.532 26.388,30.532 C24.783,30.532 23.270,30.163 21.917,29.523 C21.917,29.523 21.917,29.523 21.917,29.523 C22.662,30.087 23.469,30.556 24.318,30.926 C24.343,30.937 24.367,30.950 24.393,30.960 C24.605,31.051 24.823,31.130 25.041,31.208 C25.159,31.250 25.277,31.294 25.397,31.332 C25.583,31.392 25.771,31.445 25.960,31.496 C26.124,31.540 26.290,31.581 26.456,31.617 C26.620,31.654 26.784,31.689 26.950,31.719 C27.163,31.756 27.377,31.785 27.593,31.811 C27.724,31.827 27.854,31.847 27.986,31.859 C28.340,31.890 28.697,31.910 29.056,31.910 C32.179,31.910 35.114,30.723 37.322,28.568 C39.252,26.684 40.424,24.258 40.688,21.641 C40.717,21.294 40.738,20.945 40.741,20.594 C40.742,20.562 40.746,20.531 40.746,20.499 C40.746,20.116 40.719,19.736 40.688,19.358 C40.424,16.742 39.252,14.315 37.322,12.431 C35.114,10.276 32.179,9.089 29.056,9.089 ZM26.372,35.757 C17.738,35.757 10.740,28.926 10.740,20.500 C10.740,12.073 17.738,5.242 26.372,5.242 C29.004,5.242 31.480,5.883 33.656,7.005 C32.619,6.272 31.511,5.644 30.327,5.155 C28.231,4.290 25.994,3.848 23.687,3.848 C21.380,3.848 19.142,4.290 17.046,5.155 C15.022,5.990 13.194,7.192 11.623,8.725 C10.053,10.258 8.822,12.042 7.966,14.018 C7.080,16.064 6.627,18.248 6.627,20.499 C6.627,22.751 7.080,24.935 7.966,26.981 C8.822,28.957 10.053,30.741 11.623,32.274 C13.194,33.807 15.022,35.009 17.046,35.844 C19.142,36.709 21.380,37.151 23.687,37.151 C25.994,37.151 28.231,36.709 30.327,35.844 C31.517,35.353 32.629,34.721 33.671,33.983 C31.492,35.111 29.011,35.757 26.372,35.757 ZM21.002,1.227 C18.336,1.227 15.750,1.737 13.317,2.741 C10.966,3.712 8.854,5.102 7.040,6.872 C5.227,8.642 3.803,10.703 2.808,12.998 C1.779,15.374 1.257,17.897 1.257,20.500 C1.257,23.102 1.779,25.626 2.808,28.001 C3.803,30.296 5.227,32.357 7.040,34.127 C8.854,35.897 10.966,37.287 13.317,38.258 C15.750,39.263 18.336,39.772 21.002,39.772 C23.668,39.772 26.253,39.263 28.687,38.258 C30.029,37.704 31.282,36.999 32.457,36.179 C29.852,37.573 26.869,38.379 23.687,38.379 C13.571,38.379 5.370,30.374 5.370,20.499 C5.370,10.625 13.571,2.621 23.687,2.621 C26.828,2.621 29.783,3.395 32.367,4.755 C31.218,3.963 29.994,3.281 28.687,2.741 C26.253,1.737 23.668,1.227 21.002,1.227 Z"
	/>
</svg>