<svg width="14" height="16" fill="none" xmlns="http://www.w3.org/2000/svg">
  <path d="M11.92 10.3c-.2 0-.4-.1-.5-.2l-3.1-2.7c-.1-.1-.2-.3-.2-.6V1.3c0-.4.3-.8.8-.8.4 0 .8.3.8.8v5.1l2.8 2.4c.3.3.4.8.1 1.1-.2.3-.5.4-.7.4zM4.72 2.9a.8.8 0 100-1.6.8.8 0 000 1.6zM2.42 5.1a.8.8 0 100-1.6.8.8 0 000 1.6zM1.32 8a.8.8 0 100-1.6.8.8 0 000 1.6zM1.82 11.1a.8.8 0 100-1.6.8.8 0 000 1.6zM3.72 13.7a.8.8 0 100-1.6.8.8 0 000 1.6zM6.42 15.1a.8.8 0 100-1.6.8.8 0 000 1.6zM9.52 15a.8.8 0 100-1.6.8.8 0 000 1.6zM13.16 12.7a.8.8 0 10-1.6-.06.8.8 0 001.6.05z" fill="#2995D8"/>
</svg>
