<svg width="17" height="17" fill="none" xmlns="http://www.w3.org/2000/svg">
  <path fill-rule="evenodd" clip-rule="evenodd" d="M10.68 1.03a.81.81 0 011.04-.48 7.61 7.61 0 014.9 7.17v.03c0 .3 0 .71-.1 1.14a.81.81 0 11-1.57-.4c.05-.21.05-.43.05-.77 0-2.59-1.57-4.8-3.85-5.65a.81.81 0 01-.47-1.04zM7.23 3.15A5.86 5.86 0 002.2 9c0 3.3 2.63 5.9 5.82 5.9a5.83 5.83 0 005.13-3.09.78.78 0 011.06-.32c.38.2.53.7.32 1.08a7.4 7.4 0 01-6.51 3.93C3.97 16.5.62 13.2.62 9s3.35-7.5 7.4-7.5a.8.8 0 01.78.8v6.24l3.15 1.84c.38.22.5.71.29 1.1a.78.78 0 01-1.08.29L7.62 9.69A.8.8 0 017.23 9V3.15z" fill="#2995D8"/>
</svg>
