<svg width="17" height="17" fill="none" xmlns="http://www.w3.org/2000/svg">
  <path fill-rule="evenodd" clip-rule="evenodd" d="M.63 8.85c0-.41.33-.75.74-.75h3.4a.75.75 0 010 1.5H2.14v5.5h5.4v-2.75a.75.75 0 011.5 0v3.5c0 .41-.34.75-.75.75h-6.9a.75.75 0 01-.75-.75v-7z" fill="#2995D8"/>
  <path fill-rule="evenodd" clip-rule="evenodd" d="M4.03 1.25c0-.41.33-.75.75-.75h11.2c.4 0 .75.34.75.75v11.1c0 .41-.34.75-.76.75h-7.7a.75.75 0 010-1.5h6.96V2h-9.7v6.85a.75.75 0 01-1.5 0v-7.6z" fill="#2995D8"/>
  <path fill-rule="evenodd" clip-rule="evenodd" d="M11.9 5.22c.3.3.3.77 0 1.06l-6.6 6.6a.75.75 0 01-1.06-1.06l6.6-6.6c.3-.3.77-.3 1.07 0z" fill="#2995D8"/>
</svg>
