<svg width="17" height="17" fill="none" xmlns="http://www.w3.org/2000/svg">
  <path fill-rule="evenodd" clip-rule="evenodd" d="M7.72 1.25c0-.41.34-.75.75-.75a7.56 7.56 0 017.55 7.55.75.75 0 01-1.5 0c0-3.3-2.67-6.05-6.04-6.05a.75.75 0 01-.76-.75zM6.08 2.6c.4 0 .75.34.75.75v6.6a.75.75 0 01-1.5 0v-6.6c0-.41.33-.75.75-.75z" fill="#2995D8"/>
  <path fill-rule="evenodd" clip-rule="evenodd" d="M6.6 2.82c.3.3.3.77 0 1.06l-2.2 2.2a.75.75 0 11-1.06-1.06l2.2-2.2c.3-.3.77-.3 1.07 0zM1.38 7.8c.4 0 .75.34.75.75 0 3.3 2.67 6.05 6.05 6.05a.75.75 0 010 1.5A7.56 7.56 0 01.63 8.55c0-.41.33-.75.74-.75zM10.57 5.9c.42 0 .75.34.75.75v6.6a.75.75 0 01-1.5 0v-6.6c0-.41.34-.75.75-.75z" fill="#2995D8"/>
  <path fill-rule="evenodd" clip-rule="evenodd" d="M13.3 10.52c.3.3.3.77 0 1.06l-2.2 2.2a.75.75 0 11-1.06-1.06l2.2-2.2c.3-.3.77-.3 1.07 0z" fill="#2995D8"/>
</svg>
